<svg xmlns="http://www.w3.org/2000/svg" xmlns:xlink="http://www.w3.org/1999/xlink" viewBox="0 0 810 809.999993" preserveAspectRatio="xMidYMid meet">
  <defs>
    <clipPath id="ic-rect-l">
      <rect x="0" width="606" y="0" height="810"/>
    </clipPath>
    <clipPath id="ic-rect-r">
      <rect x="0" width="541" y="0" height="810"/>
    </clipPath>
    <clipPath id="ic-bar">
      <path d="M 42 0 L 482 0 L 482 810 L 42 810 Z M 42 0 " clip-rule="nonzero"/>
    </clipPath>
  </defs>
  <g transform="matrix(1, 0, 0, 1, 108, 0)">
    <g clip-path="url(#ic-rect-l)">
      <g fill="#fbbf24" fill-opacity="1">
        <g transform="translate(0.388606, 712.252128)">
          <path d="M 93.1875 0 L 93.1875 -616.46875 L 326.796875 -616.46875 C 364.742188 -616.46875 396.929688 -610.425781 423.359375 -598.34375 C 449.785156 -586.257812 469.675781 -569.039062 483.03125 -546.6875 C 496.382812 -524.34375 503.0625 -497.710938 503.0625 -466.796875 C 503.0625 -440.085938 495.820312 -415.910156 481.34375 -394.265625 C 466.863281 -372.617188 446.128906 -355.753906 419.140625 -343.671875 L 419.140625 -334.8125 C 460.191406 -324.6875 491.328125 -306.269531 512.546875 -279.5625 C 533.765625 -252.863281 544.375 -219.273438 544.375 -178.796875 C 544.375 -121.441406 527.578125 -77.300781 493.984375 -46.375 C 460.398438 -15.457031 410.578125 0 344.515625 0 Z M 323.421875 -357.578125 C 357.441406 -357.578125 383.867188 -366.503906 402.703125 -384.359375 C 421.535156 -402.210938 430.953125 -426.738281 430.953125 -457.9375 C 430.953125 -490.832031 421.882812 -515.5 403.75 -531.9375 C 385.625 -548.375 358.847656 -556.59375 323.421875 -556.59375 L 165.71875 -556.59375 L 165.71875 -357.578125 Z M 339.03125 -59.875 C 426.738281 -59.875 470.59375 -99.515625 470.59375 -178.796875 C 470.59375 -258.066406 426.738281 -297.703125 339.03125 -297.703125 L 165.71875 -297.703125 L 165.71875 -59.875 Z M 339.03125 -59.875 "/>
        </g>
      </g>
    </g>
  </g>
  <g transform="matrix(1, 0, 0, 1, 140, 0)">
    <g clip-path="url(#ic-rect-r)">
      <g clip-path="url(#ic-bar)">
        <g fill="#fbbf24" fill-opacity="1">
          <g transform="translate(0.748483, 712.252128)">
            <path d="M 481.140625 -169.9375 C 481.140625 -137.320312 474.320312 -108.15625 460.6875 -82.4375 C 447.050781 -56.71875 426.382812 -35.914062 398.6875 -20.03125 C 371 -4.144531 336.773438 5.203125 296.015625 8.015625 L 296.015625 96.984375 L 234.453125 96.984375 L 234.453125 7.171875 C 186.378906 2.671875 145.894531 -9.976562 113 -30.78125 C 80.113281 -51.582031 56.503906 -76.320312 42.171875 -105 L 81.8125 -153.0625 L 92.34375 -153.0625 C 124.957031 -98.25 172.328125 -66.765625 234.453125 -58.609375 L 234.453125 -293.484375 L 216.734375 -297.703125 C 163.046875 -310.628906 123.476562 -331.21875 98.03125 -359.46875 C 72.59375 -387.726562 59.875 -423.503906 59.875 -466.796875 C 59.875 -495.191406 66.691406 -520.769531 80.328125 -543.53125 C 93.960938 -566.300781 113.851562 -584.78125 140 -598.96875 C 166.144531 -613.164062 197.628906 -621.671875 234.453125 -624.484375 L 234.453125 -713.46875 L 296.015625 -713.46875 L 296.015625 -624.0625 C 369.109375 -618.15625 422.238281 -592.4375 455.40625 -546.90625 L 419.984375 -499.265625 L 409.453125 -499.265625 C 395.109375 -516.960938 378.585938 -530.726562 359.890625 -540.5625 C 341.203125 -550.40625 319.910156 -556.875 296.015625 -559.96875 L 296.015625 -349.5625 L 310.78125 -346.203125 C 370.65625 -332.140625 414.015625 -310.5625 440.859375 -281.46875 C 467.710938 -252.375 481.140625 -215.195312 481.140625 -169.9375 Z M 131.984375 -468.484375 C 131.984375 -440.929688 139.785156 -419.003906 155.390625 -402.703125 C 170.992188 -386.398438 197.347656 -373.609375 234.453125 -364.328125 L 234.453125 -560.8125 C 200.710938 -557.4375 175.195312 -547.597656 157.90625 -531.296875 C 140.625 -515.003906 131.984375 -494.066406 131.984375 -468.484375 Z M 296.015625 -57.765625 C 333.398438 -61.421875 361.226562 -72.734375 379.5 -91.703125 C 397.78125 -110.679688 406.921875 -135.632812 406.921875 -166.5625 C 406.921875 -186.238281 403.40625 -202.960938 396.375 -216.734375 C 389.34375 -230.515625 377.816406 -242.394531 361.796875 -252.375 C 345.773438 -262.351562 323.847656 -271 296.015625 -278.3125 Z M 296.015625 -57.765625 "/>
          </g>
        </g>
      </g>
    </g>
  </g>
</svg>
